<?xml version="1.0" standalone="no"?>
<!DOCTYPE svg PUBLIC "-//W3C//DTD SVG 20010904//EN"
 "http://www.w3.org/TR/2001/REC-SVG-20010904/DTD/svg10.dtd">
<svg version="1.0" xmlns="http://www.w3.org/2000/svg"
 width="863.000000pt" height="863.000000pt" viewBox="0 0 863.000000 863.000000"
 preserveAspectRatio="xMidYMid meet">
<metadata>
Created by potrace 1.11, written by Peter Selinger 2001-2013
</metadata>
<g transform="translate(0.000000,863.000000) scale(0.100000,-0.100000)"
fill="#000000" stroke="none">
<path d="M3980 8559 c-253 -20 -504 -61 -713 -115 -32 -9 -65 -13 -73 -10 -8
3 -13 2 -9 -3 3 -5 -9 -12 -26 -16 -45 -10 -264 -80 -329 -105 -92 -36 -135
-52 -145 -54 -12 -3 -123 -53 -147 -66 -11 -6 -19 -6 -23 0 -3 6 -12 10 -18
10 -8 0 -7 -3 2 -9 11 -7 1 -16 -37 -35 -29 -15 -52 -23 -52 -19 0 5 -4 3 -8
-3 -12 -18 -72 -45 -84 -38 -6 4 -8 3 -5 -3 8 -12 -71 -55 -85 -46 -6 3 -8 2
-5 -4 4 -6 -17 -23 -45 -39 -29 -16 -68 -38 -87 -49 -20 -11 -57 -35 -83 -53
-26 -17 -51 -32 -56 -32 -6 0 -12 -4 -14 -8 -7 -17 -69 -53 -79 -46 -8 4 -9 3
-5 -4 8 -13 -28 -35 -39 -24 -3 4 -5 2 -3 -5 1 -6 -22 -30 -52 -52 -30 -22
-60 -45 -67 -51 -7 -5 -14 -10 -17 -10 -3 0 -17 -11 -31 -26 -14 -14 -30 -22
-37 -18 -6 4 -8 3 -5 -3 5 -7 -78 -88 -91 -88 -2 0 -60 -54 -129 -120 -69 -66
-130 -119 -135 -117 -4 1 -7 -2 -6 -6 5 -15 -100 -123 -106 -109 -3 7 -5 6 -3
-3 3 -20 -73 -111 -86 -103 -6 3 -7 1 -3 -5 3 -6 -3 -17 -14 -25 -11 -7 -17
-17 -13 -20 3 -4 -1 -7 -10 -7 -9 0 -19 -5 -23 -12 -5 -7 -3 -8 7 -3 8 5 6 -1
-5 -13 -10 -12 -22 -19 -26 -17 -4 3 -7 -3 -6 -13 0 -9 -5 -16 -12 -14 -8 1
-11 -2 -7 -8 3 -5 -9 -29 -28 -53 -19 -23 -63 -82 -98 -132 -34 -49 -67 -91
-71 -93 -4 -2 -8 -10 -8 -17 0 -8 -6 -18 -14 -22 -8 -4 -15 -12 -15 -18 0 -5
-24 -49 -53 -98 -86 -143 -96 -160 -113 -199 -10 -21 -22 -35 -28 -31 -6 3 -7
1 -3 -5 4 -7 -13 -51 -38 -100 -26 -48 -46 -94 -46 -101 0 -7 -4 -9 -10 -6 -5
3 -7 0 -4 -8 3 -8 -2 -22 -11 -30 -9 -9 -16 -19 -15 -22 1 -27 -2 -35 -12 -29
-7 4 -8 3 -4 -5 4 -6 2 -19 -5 -28 -8 -9 -14 -21 -14 -27 -2 -30 -29 -95 -38
-89 -6 3 -7 1 -3 -5 6 -9 -9 -60 -35 -117 -16 -37 -76 -239 -100 -337 -13 -55
-27 -94 -32 -91 -6 3 -7 1 -3 -5 11 -18 -34 -243 -48 -235 -7 4 -6 1 1 -9 7
-8 11 -17 9 -19 -5 -5 -15 -60 -20 -109 -36 -339 -38 -391 -32 -690 3 -168 8
-318 10 -335 2 -16 12 -86 21 -155 9 -69 21 -147 27 -174 8 -39 7 -50 -3 -57
-11 -7 -11 -9 2 -9 12 0 19 -19 30 -72 8 -40 14 -80 15 -88 1 -8 4 -22 7 -30
2 -8 17 -60 32 -115 15 -55 31 -111 36 -124 5 -13 7 -33 4 -45 -5 -17 -4 -18
5 -6 10 12 11 11 7 -7 -3 -12 -1 -23 3 -25 4 -2 22 -43 39 -93 18 -49 39 -106
48 -127 8 -20 12 -42 8 -49 -5 -7 -4 -10 1 -6 5 3 31 -45 58 -106 27 -62 70
-155 97 -208 26 -54 45 -100 41 -105 -4 -4 -1 -4 5 0 7 4 13 3 13 -1 0 -5 23
-49 51 -97 27 -49 48 -94 45 -102 -3 -8 0 -11 9 -8 12 5 32 -30 27 -49 -1 -5
2 -6 7 -3 5 3 11 0 14 -7 2 -6 6 -16 8 -22 2 -5 14 -20 27 -34 12 -13 22 -30
22 -37 0 -7 3 -14 8 -16 16 -7 63 -79 57 -88 -4 -6 -2 -9 3 -8 5 2 35 -30 66
-69 30 -40 54 -73 52 -73 -3 0 8 -12 22 -27 15 -16 36 -41 47 -57 11 -16 35
-44 53 -63 17 -19 32 -37 32 -40 0 -3 8 -12 17 -19 10 -7 18 -18 18 -26 1 -7
6 -12 13 -10 16 3 15 -10 -1 -28 -10 -12 -9 -12 6 0 17 12 23 9 60 -35 23 -27
41 -53 39 -58 -1 -5 1 -6 6 -3 12 7 84 -68 75 -79 -5 -4 -3 -6 2 -2 11 6 47
-17 46 -30 -1 -4 2 -8 7 -8 8 0 71 -55 132 -115 19 -19 38 -34 42 -35 4 0 15
-8 25 -18 10 -10 51 -43 91 -73 41 -32 69 -60 66 -66 -4 -7 -2 -8 5 -4 13 9
44 -12 36 -24 -3 -4 3 -7 13 -6 9 0 16 -5 14 -12 -1 -8 2 -11 9 -7 6 4 27 -8
46 -26 20 -19 33 -28 28 -20 -5 9 1 7 19 -4 14 -10 26 -21 26 -26 0 -5 3 -8 7
-7 14 5 53 -28 45 -37 -4 -5 -2 -5 4 -2 10 6 162 -77 244 -133 14 -9 36 -21
49 -25 19 -6 21 -9 10 -17 -11 -8 -10 -9 3 -4 24 7 50 -3 41 -17 -3 -5 -1 -7
5 -3 14 9 63 -14 55 -27 -3 -6 -1 -7 5 -3 6 3 46 -11 89 -33 43 -22 90 -42
105 -46 16 -4 25 -12 21 -18 -3 -5 -1 -7 4 -4 6 4 65 -15 131 -42 67 -27 135
-52 152 -56 16 -4 30 -10 30 -14 0 -4 9 -7 21 -8 11 -1 47 -11 80 -22 32 -12
66 -21 75 -21 8 0 13 -4 10 -9 -4 -5 3 -7 14 -4 20 5 20 13 20 1359 l0 1354
-502 0 -503 0 2 -662 c2 -555 0 -660 -11 -645 -7 9 -18 17 -23 17 -5 0 -19 10
-30 23 -12 12 -33 30 -47 40 -15 10 -23 23 -20 29 4 6 3 8 -3 5 -13 -8 -36 17
-25 28 4 5 1 5 -6 1 -13 -8 -47 20 -47 38 -1 6 -5 10 -11 9 -6 -1 -57 46 -114
105 -144 149 -165 172 -157 172 4 0 -7 14 -25 31 -18 17 -26 27 -18 23 8 -4 4
4 -10 17 -65 65 -153 187 -144 201 4 6 3 8 -3 5 -14 -9 -136 179 -127 195 4 6
3 8 -3 5 -5 -3 -23 18 -40 48 -23 40 -28 56 -19 65 8 8 7 10 -4 5 -12 -4 -32
27 -83 132 -80 166 -124 274 -121 297 1 9 -2 13 -9 9 -6 -4 -8 0 -4 10 3 10 2
17 -2 17 -8 0 -65 159 -66 185 0 6 -3 15 -7 20 -9 15 -54 198 -77 310 -87 435
-85 903 5 1363 10 48 20 89 23 92 3 3 7 16 7 29 2 39 90 328 104 341 3 3 5 10
5 15 0 19 28 90 41 105 7 8 13 20 13 25 -1 25 25 84 34 78 6 -3 7 -1 3 5 -8
14 74 193 86 186 5 -3 8 0 7 7 -4 21 23 69 34 62 6 -3 7 -1 3 5 -8 13 40 102
65 120 10 7 16 18 14 25 -7 18 22 50 37 42 10 -6 10 -5 1 5 -9 10 -8 18 4 36
8 13 20 21 26 17 6 -3 7 -1 3 6 -7 10 22 62 48 86 6 6 16 19 23 30 6 11 16 19
23 17 6 -1 9 2 5 8 -6 10 23 56 62 100 7 8 29 35 50 60 20 25 41 43 47 42 6
-2 8 0 4 4 -9 8 40 69 56 69 6 1 10 6 9 11 -2 12 217 234 232 234 6 0 10 4 10
9 0 16 94 93 105 86 5 -3 10 -1 10 6 0 19 30 48 45 43 7 -3 16 0 21 7 5 8 3
10 -7 4 -12 -8 -12 -6 0 9 8 9 20 15 28 12 8 -3 12 -2 9 3 -3 4 3 16 14 26 11
10 20 14 20 10 0 -5 6 -2 13 7 24 30 128 99 139 92 7 -4 8 -3 4 4 -3 6 3 16
14 22 11 6 20 7 20 3 0 -4 6 -1 13 8 13 17 121 88 140 92 6 1 20 10 31 20 11
10 26 15 34 12 7 -2 11 -1 8 3 -7 11 143 84 156 76 6 -4 8 -3 5 3 -8 12 61 46
75 37 6 -4 8 -2 4 4 -3 6 9 15 31 22 21 7 43 17 50 22 7 5 16 7 22 4 5 -3 11
-2 13 4 6 17 314 124 330 114 4 -3 8 -1 8 5 0 9 71 27 98 24 6 0 12 4 12 9 0
5 8 8 18 7 9 -1 24 1 32 4 37 14 204 48 216 43 7 -3 16 -1 19 3 6 11 200 35
219 28 7 -3 18 -1 24 5 16 16 446 22 592 9 153 -14 353 -42 360 -50 3 -3 14
-7 25 -7 51 -4 208 -38 252 -55 16 -6 37 -12 48 -14 87 -11 479 -161 468 -178
-3 -6 -1 -7 6 -3 6 4 23 1 36 -8 14 -9 27 -16 30 -16 10 1 131 -63 148 -78 9
-8 17 -12 17 -8 0 4 14 -1 30 -11 17 -9 30 -21 30 -26 0 -4 4 -6 8 -3 12 7 63
-29 55 -39 -5 -4 -3 -5 4 -1 10 5 146 -73 163 -94 3 -3 22 -16 43 -29 20 -12
37 -27 37 -32 0 -5 5 -9 11 -9 18 0 59 -37 51 -45 -4 -5 -2 -5 4 -2 7 4 26 -6
43 -22 17 -16 31 -27 31 -24 0 8 126 -102 193 -168 31 -32 57 -62 57 -69 0 -6
-4 -9 -9 -5 -5 3 -12 1 -15 -4 -7 -10 13 -9 30 2 7 4 25 -8 43 -28 31 -35 42
-63 19 -49 -7 4 -8 3 -4 -5 6 -8 12 -9 20 -2 9 8 20 3 39 -17 15 -16 24 -32
20 -37 -5 -4 -3 -5 3 -2 10 5 135 -136 196 -220 13 -18 44 -62 71 -97 26 -36
47 -67 47 -70 0 -3 7 -14 15 -23 8 -10 15 -21 15 -25 0 -5 9 -17 20 -28 11
-11 20 -27 20 -35 0 -8 5 -15 11 -15 5 0 7 -4 4 -10 -3 -5 -1 -10 5 -10 6 0 9
-4 5 -9 -3 -6 1 -13 8 -18 22 -13 59 -82 51 -94 -4 -7 -3 -9 4 -5 6 4 16 -8
23 -29 7 -19 16 -35 20 -35 3 0 20 -30 37 -67 79 -174 95 -211 113 -257 11
-27 17 -51 14 -54 -3 -3 1 -12 9 -21 20 -23 69 -179 60 -192 -4 -7 -3 -9 3 -6
9 5 40 -92 57 -178 3 -11 12 -51 21 -88 8 -37 13 -72 10 -77 -3 -5 -1 -11 4
-14 5 -3 12 -30 16 -59 4 -28 9 -59 10 -67 2 -8 6 -44 10 -80 3 -36 8 -73 11
-82 12 -41 20 -368 13 -514 -8 -157 -30 -355 -50 -458 -6 -28 -11 -57 -12 -63
0 -7 -4 -13 -8 -13 -5 0 -6 -6 -3 -13 3 -8 -11 -76 -31 -152 -19 -76 -35 -140
-35 -142 0 -2 -4 -2 -9 1 -4 3 -6 -7 -3 -22 5 -25 4 -26 -14 -12 -18 14 -18
14 -5 -2 11 -15 9 -29 -14 -98 -16 -44 -33 -77 -38 -73 -6 4 -7 1 -3 -6 8 -13
-23 -99 -61 -169 -12 -23 -23 -46 -23 -50 -1 -22 -13 -41 -22 -36 -7 4 -8 2
-4 -4 7 -11 -15 -62 -37 -91 -6 -7 -12 -20 -13 -28 -4 -25 -87 -162 -95 -157
-5 3 -6 -1 -3 -9 3 -8 -5 -24 -17 -36 -13 -12 -20 -21 -16 -21 4 0 3 -9 -3
-20 -6 -11 -16 -17 -22 -14 -7 4 -8 3 -4 -4 7 -12 -47 -101 -71 -115 -7 -5
-11 -12 -8 -18 4 -5 1 -9 -4 -9 -6 0 -11 -6 -11 -14 0 -8 -10 -22 -22 -30 -12
-9 -19 -16 -14 -16 5 0 3 -7 -4 -15 -7 -8 -16 -13 -20 -10 -5 3 -12 0 -16 -6
-4 -8 -3 -9 4 -5 26 16 9 -11 -62 -98 -109 -133 -186 -211 -205 -208 -12 2
-13 0 -3 -6 9 -6 2 -17 -25 -42 -21 -19 -41 -33 -46 -32 -4 1 -6 -2 -5 -7 3
-7 -77 -91 -86 -91 -3 0 -28 -22 -57 -50 -28 -27 -56 -47 -62 -43 -5 3 -7 2
-4 -4 3 -5 -7 -20 -23 -32 l-30 -22 0 1833 0 1833 -500 0 -500 0 -2 -2528 c-3
-2328 -2 -2527 13 -2527 14 0 141 41 354 115 28 10 62 24 77 31 15 8 31 13 35
13 4 -1 49 17 98 41 50 24 96 43 103 43 6 0 12 3 12 7 0 3 46 28 103 55 56 28
108 56 116 63 7 7 21 10 29 7 9 -3 13 -3 9 1 -10 11 71 57 85 48 7 -5 8 -3 3
6 -6 10 -4 12 9 7 9 -4 15 -3 12 2 -5 7 85 70 102 71 4 1 23 14 42 30 19 17
40 30 47 30 7 0 13 5 13 11 0 8 5 7 15 -1 13 -11 14 -10 10 2 -4 9 4 21 19 32
15 9 26 14 26 12 0 -3 10 4 23 15 69 64 189 149 199 143 6 -4 8 -3 5 3 -9 14
29 47 44 37 7 -4 10 -3 6 3 -4 6 26 40 66 74 39 35 77 69 82 75 6 6 56 55 112
108 56 53 99 96 96 96 -4 0 6 13 22 30 15 16 33 27 38 23 6 -3 7 -1 3 5 -4 6
2 17 14 24 11 7 20 18 20 24 0 7 15 25 33 41 17 16 37 38 44 49 6 10 16 18 23
16 6 -1 9 2 5 8 -3 5 -1 10 5 10 6 0 9 3 7 8 -5 7 23 38 33 36 3 -1 4 2 2 7
-3 13 89 125 100 121 5 -1 7 2 4 6 -3 5 8 30 25 56 27 40 33 45 48 34 14 -11
14 -11 3 4 -11 14 -7 26 32 85 25 37 52 76 61 86 8 9 14 18 13 20 -2 1 8 20
21 42 14 22 38 66 55 97 16 31 33 55 38 52 4 -3 5 1 2 9 -3 8 2 20 11 27 8 7
15 18 15 24 0 6 10 27 22 46 12 19 23 40 24 45 6 30 42 94 49 87 5 -4 5 -2 1
5 -6 12 22 83 34 83 3 0 6 8 7 18 0 9 15 51 33 92 70 166 141 383 196 605 10
40 11 45 13 48 2 1 4 16 6 32 2 17 7 41 11 55 4 14 8 35 10 47 1 11 9 59 18
105 42 231 51 355 51 718 0 284 -4 382 -18 493 -10 75 -15 142 -12 147 3 6 2
10 -3 10 -5 0 -13 26 -17 58 -4 31 -15 97 -26 145 -10 49 -18 91 -17 95 1 4
-2 14 -5 22 -3 8 -16 53 -27 100 -22 90 -75 269 -91 308 -5 13 -6 28 -3 34 4
6 3 8 -3 5 -8 -5 -44 82 -49 118 0 6 -8 26 -17 46 -9 20 -17 42 -19 50 -2 8
-6 16 -9 19 -14 13 -108 234 -102 243 4 6 1 7 -7 2 -10 -6 -12 -4 -7 9 4 9 3
15 -2 12 -11 -7 -33 43 -25 56 4 7 2 8 -4 4 -11 -6 -14 0 -11 20 0 4 -3 10 -8
13 -8 6 -22 29 -52 85 -9 17 -20 35 -24 40 -17 23 -79 132 -80 141 -1 5 -7 14
-13 20 -28 26 -104 148 -98 157 4 7 2 8 -4 4 -11 -6 -16 6 -13 26 0 5 -3 7 -8
5 -13 -3 -122 143 -115 155 4 6 3 8 -3 5 -5 -3 -49 42 -98 101 -49 59 -98 113
-107 120 -10 7 -16 18 -13 23 4 5 1 9 -5 9 -6 0 -8 6 -4 13 4 6 4 9 -1 5 -11
-11 -36 12 -28 25 3 5 2 7 -4 4 -9 -6 -55 37 -61 56 -1 4 -4 7 -7 7 -12 1 -60
54 -57 64 2 6 0 8 -4 4 -10 -11 -35 12 -27 25 3 5 2 7 -4 4 -13 -8 -56 37 -46
48 5 4 2 5 -5 0 -16 -9 -94 63 -85 78 3 6 1 7 -6 3 -14 -9 -43 12 -35 25 3 5
1 8 -4 7 -5 -2 -25 10 -43 25 -19 16 -79 62 -134 104 -55 41 -98 80 -97 87 2
6 1 8 -3 4 -8 -8 -84 38 -102 61 -7 9 -13 12 -13 6 0 -5 -5 -3 -10 5 -5 8 -13
15 -17 15 -17 0 -102 63 -95 70 4 5 1 5 -5 1 -14 -8 -56 17 -48 27 3 4 2 5 -1
2 -9 -6 -172 82 -201 108 -13 11 -23 17 -23 14 0 -10 -137 60 -145 73 -3 6
-10 8 -15 5 -11 -7 -60 15 -60 27 0 5 -4 6 -10 3 -5 -3 -10 -1 -10 5 0 6 -4 9
-9 6 -5 -4 -39 7 -74 24 -36 16 -70 30 -76 30 -6 0 -11 5 -11 11 0 5 -4 8 -9
5 -13 -8 -42 4 -35 15 3 5 -1 6 -9 3 -8 -3 -32 2 -53 12 -22 9 -46 18 -55 20
-9 2 -29 9 -45 15 -16 7 -34 13 -41 15 -21 4 -117 36 -128 42 -5 4 -17 7 -25
7 -44 4 -51 6 -45 15 3 5 0 7 -8 4 -8 -3 -41 2 -73 11 -33 9 -68 18 -79 20
-11 2 -33 6 -50 10 -196 40 -258 50 -445 71 -162 18 -629 26 -790 13z"/>
<path d="M6884 7718 c-4 -7 -4 -10 1 -6 4 4 15 2 24 -5 14 -11 14 -10 2 6 -16
20 -18 21 -27 5z"/>
<path d="M7176 7468 c3 -4 11 -5 19 -1 21 7 19 12 -4 10 -11 0 -18 -5 -15 -9z"/>
<path d="M2006 6868 c3 -5 10 -6 15 -3 13 9 11 12 -6 12 -8 0 -12 -4 -9 -9z"/>
<path d="M1780 6641 c0 -7 -5 -9 -12 -5 -7 5 -8 3 -3 -5 5 -9 10 -10 18 -2 6
6 8 14 4 18 -4 3 -7 1 -7 -6z"/>
<path d="M1670 6521 c0 -6 4 -13 10 -16 6 -3 7 1 4 9 -7 18 -14 21 -14 7z"/>
<path d="M1296 5933 c-6 -14 -5 -15 5 -6 7 7 10 15 7 18 -3 3 -9 -2 -12 -12z"/>
<path d="M3800 2136 l0 -2073 47 -7 c147 -20 457 -28 667 -16 222 11 282 16
294 24 4 2 6 936 4 2075 l-2 2071 -505 0 -505 0 0 -2074z"/>
<path d="M7596 3323 c-6 -14 -5 -15 5 -6 7 7 10 15 7 18 -3 3 -9 -2 -12 -12z"/>
<path d="M1096 1428 c3 -5 10 -6 15 -3 13 9 11 12 -6 12 -8 0 -12 -4 -9 -9z"/>
<path d="M1336 1188 c3 -5 10 -6 15 -3 13 9 11 12 -6 12 -8 0 -12 -4 -9 -9z"/>
</g>
</svg>
